<svg width="24" height="24" viewBox="0 0 24 24" fill="none" xmlns="http://www.w3.org/2000/svg">
<rect y="24" width="24" height="24" transform="rotate(-90 0 24)" fill=""/>
<path d="M11.7227 7.38461C12.5547 7.38461 13.5977 6.80483 14.2188 6.03179C14.7812 5.33121 15.1914 4.35283 15.1914 3.37444C15.1914 3.24158 15.1797 3.10871 15.1562 3C14.2305 3.03624 13.1172 3.64018 12.4492 4.44946C11.9219 5.06548 11.4414 6.03179 11.4414 7.02225C11.4414 7.1672 11.4648 7.31214 11.4766 7.36046C11.5352 7.37254 11.6289 7.38461 11.7227 7.38461ZM8.79297 22C9.92969 22 10.4336 21.2149 11.8516 21.2149C13.293 21.2149 13.6094 21.9758 14.875 21.9758C16.1172 21.9758 16.9492 20.7921 17.7344 19.6325C18.6133 18.3039 18.9766 16.9994 19 16.939C18.918 16.9148 16.5391 15.9123 16.5391 13.0979C16.5391 10.658 18.4141 9.5588 18.5195 9.47425C17.2773 7.63827 15.3906 7.58996 14.875 7.58996C13.4805 7.58996 12.3438 8.45963 11.6289 8.45963C10.8555 8.45963 9.83594 7.63827 8.62891 7.63827C6.33203 7.63827 4 9.59504 4 13.2912C4 15.5861 4.86719 18.014 5.93359 19.5842C6.84766 20.9129 7.64453 22 8.79297 22Z" fill="black"/>
</svg>
