<svg width="16" height="16" viewBox="0 0 16 16" fill="none" xmlns="http://www.w3.org/2000/svg">
<path d="M7.4501 2.13573C7.7149 1.74935 8.28512 1.74935 8.54993 2.13573L10.2171 4.56839C10.3038 4.69488 10.4315 4.78761 10.5785 4.83097L13.4073 5.66485C13.8566 5.79729 14.0328 6.3396 13.7472 6.71085L11.9488 9.04819C11.8553 9.16972 11.8065 9.31977 11.8108 9.47305L11.8918 12.4211C11.9047 12.8893 11.4434 13.2245 11.0021 13.0675L8.22338 12.0794C8.0789 12.0281 7.92112 12.0281 7.77665 12.0794L4.99797 13.0675C4.55663 13.2245 4.09531 12.8893 4.10819 12.4211L4.18927 9.47305C4.19348 9.31977 4.14473 9.16972 4.05122 9.04819L2.25282 6.71085C1.96718 6.33961 2.14339 5.79729 2.59269 5.66485L5.42148 4.83097C5.56856 4.78761 5.6962 4.69488 5.78289 4.56839L7.4501 2.13573Z" fill="#D9D9D9"/>
</svg>
