<svg width="36" height="36" viewBox="0 0 36 36" fill="none" xmlns="http://www.w3.org/2000/svg">
<path d="M22.2221 16.2964C22.2221 17.1146 22.8854 17.7779 23.7036 17.7779C24.5218 17.7779 25.1851 17.1146 25.1851 16.2964C25.1851 15.4782 24.5218 14.8149 23.7036 14.8149C22.8854 14.8149 22.2221 15.4782 22.2221 16.2964Z" fill="black"/>
<path d="M16.2963 16.2964C16.2963 17.1146 16.9596 17.7779 17.7778 17.7779C18.596 17.7779 19.2593 17.1146 19.2593 16.2964C19.2593 15.4782 18.596 14.8149 17.7778 14.8149C16.9596 14.8149 16.2963 15.4782 16.2963 16.2964Z" fill="black"/>
<path d="M10.37 16.2964C10.37 17.1146 11.0333 17.7779 11.8515 17.7779C12.6697 17.7779 13.333 17.1146 13.333 16.2964C13.333 15.4782 12.6697 14.8149 11.8515 14.8149C11.0333 14.8149 10.37 15.4782 10.37 16.2964Z" fill="black"/>
<path fill-rule="evenodd" clip-rule="evenodd" d="M12.3022 23.7036L9.31262 25.4296V24.2235L7.62091 23.42C6.61292 22.9412 5.92611 21.9182 5.92611 20.7406V11.8517C5.92611 10.2153 7.25267 8.88874 8.88907 8.88874H26.6668C28.3032 8.88874 29.6298 10.2153 29.6298 11.8517V20.7406C29.6298 22.377 28.3032 23.7036 26.6668 23.7036H12.3022ZM6.34966 29.2786C6.34966 29.8488 6.96694 30.2052 7.46077 29.9201L13.0961 26.6665H26.6668C29.9396 26.6665 32.5928 24.0134 32.5928 20.7406V11.8517C32.5928 8.57891 29.9396 5.92578 26.6668 5.92578H8.88907C5.61627 5.92578 2.96315 8.57891 2.96315 11.8517V20.7406C2.96315 23.1046 4.34744 25.1454 6.34966 26.0964V29.2786Z" fill="black"/>
</svg>
