<svg width="24" height="24" viewBox="0 0 24 24" fill="none" xmlns="http://www.w3.org/2000/svg">
<path d="M6 6.85714C6 6.38376 6.38376 6 6.85714 6H17.1429C17.6162 6 18 6.38376 18 6.85714C18 7.33053 17.6162 7.71429 17.1429 7.71429H6.85714C6.38376 7.71429 6 7.33053 6 6.85714Z" fill="#666666"/>
<path d="M6 12.0005C6 11.5271 6.38376 11.1434 6.85714 11.1434H17.1429C17.6162 11.1434 18 11.5271 18 12.0005C18 12.4739 17.6162 12.8577 17.1429 12.8577H6.85714C6.38376 12.8577 6 12.4739 6 12.0005Z" fill="#666666"/>
<path d="M6 17.1427C6 16.6693 6.38376 16.2855 6.85714 16.2855H17.1429C17.6162 16.2855 18 16.6693 18 17.1427C18 17.6161 17.6162 17.9998 17.1429 17.9998H6.85714C6.38376 17.9998 6 17.6161 6 17.1427Z" fill="#666666"/>
</svg>
