<svg width="22" height="22" viewBox="0 0 22 22" fill="none" xmlns="http://www.w3.org/2000/svg">
<circle cx="11" cy="11" r="11" fill="#ff5656"/>
<path d="M10.0371 13C10.0508 11.2637 10.543 10.7305 11.4043 10.1973C11.9922 9.82812 12.4297 9.36328 12.4297 8.67969C12.4297 7.91406 11.8418 7.42188 11.0898 7.42188C10.4062 7.42188 9.75 7.85938 9.70898 8.77539H8C8.04102 6.94336 9.42188 6 11.1035 6C12.9492 6 14.2207 7.02539 14.2207 8.65234C14.2207 9.75977 13.6602 10.4844 12.7715 11.0176C11.9785 11.4961 11.6504 11.9746 11.6367 13V13.123H10.0371V13ZM10.8848 16.1445C10.2969 16.1445 9.81836 15.666 9.81836 15.0781C9.81836 14.5039 10.2969 14.0254 10.8848 14.0254C11.4453 14.0254 11.9375 14.5039 11.9375 15.0781C11.9375 15.666 11.4453 16.1445 10.8848 16.1445Z" fill="white"/>
</svg>
