<svg width="40" height="40" viewBox="0 0 40 40" fill="none" xmlns="http://www.w3.org/2000/svg">
<path fill-rule="evenodd" clip-rule="evenodd" d="M21.78 7.42963C25.0034 5.2063 29.5084 5.56463 32.035 8.5563C34.935 11.9896 34.1867 17.0996 30.5767 19.5863L26.9917 22.0613C24.265 24.1796 22.8434 24.5413 22.8434 24.5413C21.23 25.0896 19.5017 25.063 17.9384 24.5146C16.5917 24.043 16.3967 22.1996 17.5717 21.3896C18.0384 21.0696 18.625 20.9996 19.16 21.183C20.2984 21.5746 21.6017 21.443 22.6667 20.708L22.9317 20.5263L25.8717 18.4963L28.5484 16.6496C30.5434 15.2746 30.87 12.3713 29.0434 10.583C27.685 9.25297 25.52 9.18963 23.9567 10.2696L19.605 13.273C17.24 12.748 14.6817 14.5396 13.1967 15.7146C13.6417 14.0746 14.6684 12.3396 16.175 11.2996L21.78 7.42963ZM10.9187 29.3351C12.2771 30.6651 14.4421 30.7284 16.0054 29.6484L20.5521 26.5067C22.5504 26.3217 25.1837 24.8234 26.8837 23.7201C26.5587 25.6384 25.5121 27.4267 23.7871 28.6167L17.9071 32.6751C14.2987 35.1651 9.25541 34.0517 7.07541 30.1234C5.17541 26.7001 6.43707 22.3601 9.66041 20.1367L12.9704 17.8534L15.2654 16.2684C15.8487 15.8667 16.4771 15.5917 17.1187 15.3734C18.9371 14.7567 20.9071 14.8634 22.6171 15.6284C23.8954 16.2001 24.0721 17.9484 22.9187 18.7434C22.3837 19.1134 21.7037 19.1301 21.1087 18.8651C19.9021 18.3284 18.4604 18.4067 17.2954 19.2101L17.0304 19.3917L14.0904 21.4217L11.4137 23.2684C9.41874 24.6434 9.09207 27.5467 10.9187 29.3351Z" fill="white"/>
</svg>
