<svg width="22" height="22" viewBox="0 0 22 22" fill="none" xmlns="http://www.w3.org/2000/svg">
<path d="M17.426 20.0845H6.3335V10.5801C6.95615 9.92166 7.73652 8.92183 8.40135 7.71186C9.18062 6.29361 9.8398 4.51616 9.8398 2.61223C9.8398 1.78849 9.86569 1.29924 9.91716 1.00399C9.95337 1.00565 9.99557 1.00813 10.0445 1.01179C10.1087 1.01659 10.182 1.02296 10.2634 1.03005C10.5364 1.05379 10.9003 1.08544 11.3154 1.09204C11.8116 1.2935 13.5206 2.54886 12.2551 7.39759C12.1769 7.6973 12.2419 8.01634 12.4313 8.26146C12.6207 8.50659 12.9129 8.65013 13.2227 8.65013H18.3534C18.782 8.77345 19.3507 9.0576 19.7485 9.50833C20.1345 9.94572 20.4081 10.5848 20.1443 11.5958C20.0942 11.7876 20.1023 11.9899 20.1674 12.177C20.2771 12.4924 20.3736 13.0068 20.3166 13.4681C20.2627 13.9049 20.099 14.1635 19.8033 14.3051C19.4562 14.4713 19.2353 14.8221 19.2353 15.207C19.2353 15.9679 19.1131 17.1571 18.7613 18.2055C18.4194 19.2242 17.9526 19.8518 17.426 20.0845ZM9.96444 0.813796C9.96447 0.813871 9.96386 0.81538 9.96249 0.818096C9.96372 0.815079 9.96441 0.813721 9.96444 0.813796Z" stroke="#999999" stroke-width="2" stroke-linejoin="round"/>
<rect x="1" y="10.0845" width="4.66667" height="10" stroke="#999999" stroke-width="2" stroke-linejoin="round"/>
</svg>
