<svg width="40" height="40" viewBox="0 0 40 40" fill="none" xmlns="http://www.w3.org/2000/svg">
<path d="M20 1.59998C9 1.59998 0 8.69998 0 17.4C0 23.1 3.8 28.1 9.5 30.9C9.1 32.5 8 36.6 7.8 37.4C7.5 38.5 8.2 38.5 8.6 38.2C8.9 38 14.1 34.5 16.3 33C17.5 33.2 18.7 33.3 20 33.3C31 33.3 40 26.2 40 17.5C40 8.69998 31 1.59998 20 1.59998Z" fill="#371D1E"/>
<path d="M6.00007 14.5H8.10007C8.10007 14.5 8.10007 20.2 8.10007 21.5C8.10007 22.5 10.2001 22.5 10.2001 21.5V14.6C10.2001 14.6 10.9001 14.6 12.2001 14.6C13.5001 14.6 13.5001 12.6 12.2001 12.6C10.8001 12.6 5.90007 12.6 5.90007 12.6C4.80007 12.6 4.80007 14.5 6.00007 14.5Z" fill="#FAE100"/>
<mask id="mask0_1075_3584" style="mask-type:luminance" maskUnits="userSpaceOnUse" x="5" y="12" width="9" height="11">
<path d="M6.00007 14.5H8.10007C8.10007 14.5 8.10007 20.2 8.10007 21.5C8.10007 22.5 10.2001 22.5 10.2001 21.5V14.6C10.2001 14.6 10.9001 14.6 12.2001 14.6C13.5001 14.6 13.5001 12.6 12.2001 12.6C10.8001 12.6 5.90007 12.6 5.90007 12.6C4.80007 12.6 4.80007 14.5 6.00007 14.5Z" fill="white"/>
</mask>
<g mask="url(#mask0_1075_3584)">
<path d="M13.5 12.6H4.80005V22.5H13.5V12.6Z" fill="#FAE100"/>
</g>
<path d="M15.8998 14.8998L16.9998 18.4998H14.5998L15.8998 14.8998ZM14.5998 13.1998C14.0998 14.2998 12.2998 19.5998 11.6998 20.9998C11.2998 21.9998 13.1998 22.7998 13.5998 21.7998L13.9998 20.3998H17.7998C17.7998 20.3998 17.6998 20.4998 18.1998 21.7998C18.5998 22.8998 20.5998 22.0998 20.1998 21.0998C19.5998 19.5998 17.5998 14.0998 17.2998 13.2998C17.0998 12.8998 16.4998 12.6998 15.8998 12.6998C15.2998 12.5998 14.7998 12.7998 14.5998 13.1998Z" fill="#FAE100"/>
<mask id="mask1_1075_3584" style="mask-type:luminance" maskUnits="userSpaceOnUse" x="11" y="12" width="10" height="11">
<path d="M15.8998 14.8998L16.9998 18.4998H14.5998L15.8998 14.8998ZM14.5998 13.1998C14.0998 14.2998 12.2998 19.5998 11.6998 20.9998C11.2998 21.9998 13.1998 22.7998 13.5998 21.7998L13.9998 20.3998H17.7998C17.7998 20.3998 17.6998 20.4998 18.1998 21.7998C18.5998 22.8998 20.5998 22.0998 20.1998 21.0998C19.5998 19.5998 17.5998 14.0998 17.2998 13.2998C17.0998 12.8998 16.4998 12.6998 15.8998 12.6998C15.2998 12.5998 14.7998 12.7998 14.5998 13.1998Z" fill="white"/>
</mask>
<g mask="url(#mask1_1075_3584)">
<path d="M20.3995 12.5996H11.1995V22.7996H20.3995V12.5996Z" fill="#FAE100"/>
</g>
<path d="M20.7998 13.5001C20.7998 15.3001 20.7998 21.1001 20.7998 21.1001C20.7998 21.1001 20.5998 22.2001 21.5998 22.2001C22.5998 22.2001 24.7998 22.2001 25.6998 22.2001C26.6998 22.2001 26.6998 20.1001 25.6998 20.1001C24.6998 20.1001 22.9998 20.1001 22.9998 20.1001C22.9998 20.1001 22.9998 14.8001 22.9998 13.5001C22.9998 12.9001 22.3998 12.6001 21.8998 12.6001C21.2998 12.6001 20.7998 12.9001 20.7998 13.5001Z" fill="#FAE100"/>
<mask id="mask2_1075_3584" style="mask-type:luminance" maskUnits="userSpaceOnUse" x="20" y="12" width="7" height="11">
<path d="M20.7998 13.5001C20.7998 15.3001 20.7998 21.1001 20.7998 21.1001C20.7998 21.1001 20.5998 22.2001 21.5998 22.2001C22.5998 22.2001 24.7998 22.2001 25.6998 22.2001C26.6998 22.2001 26.6998 20.1001 25.6998 20.1001C24.6998 20.1001 22.9998 20.1001 22.9998 20.1001C22.9998 20.1001 22.9998 14.8001 22.9998 13.5001C22.9998 12.9001 22.3998 12.6001 21.8998 12.6001C21.2998 12.6001 20.7998 12.9001 20.7998 13.5001Z" fill="white"/>
</mask>
<g mask="url(#mask2_1075_3584)">
<path d="M26.6999 12.6001H20.5999V22.3001H26.6999V12.6001Z" fill="#FAE100"/>
</g>
<path d="M27 13.3C27 14.1 27 21.2 27 21.7C27 22.5 29.1 22.5 29.1 21.7C29.1 20.7 29.1 18.9 29.1 18.9L29.7 18.4L32.4 22.1C32.9 22.8 34.7 21.5 34.1 20.8L31.2 17C31.2 17 33.2 14.9 33.9 14.1C34.3 13.7 33 12.2 32.5 12.7C32.1 13.1 29 16.2 29 16.2C29 16.2 29 14.3 29 13.2C29 12.8 28.5 12.6 28 12.6C27.5 12.6 27 12.8 27 13.3Z" fill="#FAE100"/>
<mask id="mask3_1075_3584" style="mask-type:luminance" maskUnits="userSpaceOnUse" x="27" y="12" width="8" height="11">
<path d="M27 13.3C27 14.1 27 21.2 27 21.7C27 22.5 29.1 22.5 29.1 21.7C29.1 20.7 29.1 18.9 29.1 18.9L29.7 18.4L32.4 22.1C32.9 22.8 34.7 21.5 34.1 20.8L31.2 17C31.2 17 33.2 14.9 33.9 14.1C34.3 13.7 33 12.2 32.5 12.7C32.1 13.1 29 16.2 29 16.2C29 16.2 29 14.3 29 13.2C29 12.8 28.5 12.6 28 12.6C27.5 12.6 27 12.8 27 13.3Z" fill="white"/>
</mask>
<g mask="url(#mask3_1075_3584)">
<path d="M34.7 12.2001H27V22.8001H34.7V12.2001Z" fill="#FAE100"/>
</g>
</svg>
