<svg width="18" height="18" viewBox="0 0 18 18" fill="none" xmlns="http://www.w3.org/2000/svg">
<path fill-rule="evenodd" clip-rule="evenodd" d="M9.375 3.75C9.375 4.16421 9.03921 4.5 8.625 4.5L4.875 4.5L4.875 13.5L8.625 13.5C9.03921 13.5 9.375 13.8358 9.375 14.25C9.375 14.6642 9.03921 15 8.625 15L4.125 15C3.71079 15 3.375 14.6642 3.375 14.25L3.375 3.75C3.375 3.33579 3.71079 3 4.125 3L8.625 3C9.03921 3 9.375 3.33579 9.375 3.75Z" fill="#999999"/>
<path fill-rule="evenodd" clip-rule="evenodd" d="M10.7197 12.5303C10.4268 12.2374 10.4268 11.7626 10.7197 11.4697L13.1893 9L10.7197 6.53033C10.4268 6.23744 10.4268 5.76256 10.7197 5.46967C11.0126 5.17678 11.4874 5.17678 11.7803 5.46967L14.7803 8.46967C15.0732 8.76256 15.0732 9.23744 14.7803 9.53033L11.7803 12.5303C11.4874 12.8232 11.0126 12.8232 10.7197 12.5303Z" fill="#999999"/>
<path d="M13.7498 9C13.7498 9.41421 13.414 9.75 12.9998 9.75L7.49976 9.75C7.08554 9.75 6.74976 9.41421 6.74976 9C6.74976 8.58579 7.08554 8.25 7.49976 8.25L12.9998 8.25C13.414 8.25 13.7498 8.58579 13.7498 9Z" fill="#999999"/>
</svg>
