<svg width="20" height="20" viewBox="0 0 20 20" fill="none" xmlns="http://www.w3.org/2000/svg">
<path fill-rule="evenodd" clip-rule="evenodd" d="M6.24047 11.863C5.68216 12.3778 4.94579 12.7 4.13158 12.7C2.40474 12.7 1 11.287 1 9.55C1 7.813 2.40474 6.4 4.13158 6.4C5.23121 6.4 6.19663 6.976 6.75584 7.8418L11.8415 4.9177C11.7798 4.6702 11.7368 4.4164 11.7368 4.15C11.7368 2.413 13.1416 1 14.8684 1C16.5953 1 18 2.413 18 4.15C18 5.887 16.5953 7.3 14.8684 7.3C14.0542 7.3 13.3178 6.9778 12.7586 6.463L7.25511 9.6265C7.25063 9.8659 7.21484 10.0954 7.15847 10.3177L12.7595 13.537C13.3178 13.0222 14.0542 12.7 14.8684 12.7C16.5953 12.7 18 14.113 18 15.85C18 17.587 16.5953 19 14.8684 19C13.1416 19 11.7368 17.587 11.7368 15.85C11.7368 15.5836 11.7798 15.3298 11.8415 15.0823L6.24047 11.863ZM16.2105 15.85C16.2105 15.1057 15.6084 14.5 14.8684 14.5C14.1285 14.5 13.5263 15.1057 13.5263 15.85C13.5263 16.5943 14.1285 17.2 14.8684 17.2C15.6084 17.2 16.2105 16.5943 16.2105 15.85ZM14.8684 2.8C15.6084 2.8 16.2105 3.4057 16.2105 4.15C16.2105 4.8943 15.6084 5.5 14.8684 5.5C14.1285 5.5 13.5263 4.8943 13.5263 4.15C13.5263 3.4057 14.1285 2.8 14.8684 2.8ZM5.47368 9.55C5.47368 8.8057 4.87153 8.2 4.13158 8.2C3.39163 8.2 2.78947 8.8057 2.78947 9.55C2.78947 10.2943 3.39163 10.9 4.13158 10.9C4.87153 10.9 5.47368 10.2943 5.47368 9.55Z" fill="#101010"/>
</svg>
