<svg width="23" height="25" viewBox="0 0 23 25" fill="none" xmlns="http://www.w3.org/2000/svg">
<path fill-rule="evenodd" clip-rule="evenodd" d="M0 1C0 0.447716 0.447715 0 1 0C1.55228 0 2 0.447715 2 1V16L18.5858 16L13.2929 10.7071C12.9024 10.3166 12.9024 9.68342 13.2929 9.29289C13.6834 8.90237 14.3166 8.90237 14.7071 9.29289L21.7071 16.2929L22.4142 17L21.7071 17.7071L14.7071 24.7071C14.3166 25.0976 13.6834 25.0976 13.2929 24.7071C12.9024 24.3166 12.9024 23.6834 13.2929 23.2929L18.5858 18H1C0.965482 18 0.931373 17.9983 0.897756 17.9948C0.3935 17.9436 0 17.5178 0 17V1Z" fill="#D9D9D9"/>
</svg>
