<svg width="19" height="19" viewBox="0 0 19 19" fill="none" xmlns="http://www.w3.org/2000/svg">
<path d="M13.3074 15.9142C13.1862 15.9147 13.0666 15.8861 12.9588 15.8308L9.09387 13.8074L5.22898 15.8308C5.10348 15.8968 4.96198 15.9263 4.82057 15.9159C4.67916 15.9054 4.54351 15.8555 4.42904 15.7719C4.31458 15.6882 4.22588 15.5741 4.17304 15.4425C4.1202 15.3109 4.10534 15.1671 4.13014 15.0275L4.88796 10.761L1.76573 7.72971C1.66832 7.6325 1.59922 7.5106 1.56584 7.37709C1.53246 7.24358 1.53607 7.1035 1.57628 6.97189C1.6202 6.8372 1.701 6.71752 1.8095 6.62644C1.918 6.53535 2.04986 6.4765 2.19011 6.45657L6.5097 5.82757L8.41183 1.93995C8.47389 1.81182 8.57077 1.70377 8.6914 1.62816C8.81203 1.55255 8.95151 1.51245 9.09387 1.51245C9.23623 1.51245 9.37572 1.55255 9.49634 1.62816C9.61697 1.70377 9.71386 1.81182 9.77591 1.93995L11.7008 5.82L16.0204 6.44899C16.1606 6.46892 16.2925 6.52777 16.401 6.61886C16.5095 6.70995 16.5903 6.82962 16.6342 6.96431C16.6744 7.09592 16.678 7.236 16.6446 7.36951C16.6113 7.50302 16.5422 7.62492 16.4447 7.72213L13.3225 10.7534L14.0803 15.02C14.1074 15.162 14.0932 15.3089 14.0395 15.4432C13.9858 15.5774 13.8948 15.6936 13.7772 15.7778C13.64 15.8739 13.4748 15.9219 13.3074 15.9142Z" fill="#FFD950"/>
</svg>
