<svg width="40" height="40" viewBox="0 0 40 40" fill="none" xmlns="http://www.w3.org/2000/svg">
<path d="M12.6 36.3C27.7 36.3 35.9 23.8 35.9 13C35.9 12.6 35.9 12.3 35.9 11.9C37.5 10.7 38.9 9.30002 40 7.70002C38.5 8.40002 36.9 8.80002 35.3 9.00002C37 8.00002 38.3 6.40002 38.9 4.50002C37.3 5.40002 35.6 6.10002 33.7 6.50002C32.2 4.90002 30.1 3.90002 27.7 3.90002C23.2 3.90002 19.5 7.60003 19.5 12.1C19.5 12.7 19.6 13.4 19.7 14C12.9 13.7 6.8 10.4 2.8 5.40002C2.1 6.50002 1.7 7.90002 1.7 9.40002C1.7 12.2 3.1 14.8 5.4 16.2C4.1 16.2 2.8 15.8 1.7 15.2V15.3C1.7 19.3 4.5 22.6 8.3 23.3C7.6 23.5 6.9 23.6 6.1 23.6C5.6 23.6 5.1 23.5 4.6 23.5C5.6 26.8 8.7 29.1 12.3 29.2C9.3 31.4 5.8 32.7 2 32.7C1.3 32.7 0.7 32.7 0 32.6C3.6 34.9 7.9 36.3 12.6 36.3Z" fill="white"/>
</svg>
