<svg width="24" height="24" viewBox="0 0 24 24" fill="none" xmlns="http://www.w3.org/2000/svg">
<path d="M5 6.85714C5 6.38376 5.47969 6 6.07143 6H18.9286C19.5203 6 20 6.38376 20 6.85714C20 7.33053 19.5203 7.71429 18.9286 7.71429H6.07143C5.4797 7.71429 5 7.33053 5 6.85714Z" fill="#666666"/>
<path d="M5 12.0005C5 11.5271 5.47969 11.1434 6.07143 11.1434H18.9286C19.5203 11.1434 20 11.5271 20 12.0005C20 12.4739 19.5203 12.8576 18.9286 12.8576H6.07143C5.4797 12.8576 5 12.4739 5 12.0005Z" fill="#666666"/>
<path d="M5 17.1427C5 16.6693 5.47969 16.2855 6.07143 16.2855H18.9286C19.5203 16.2855 20 16.6693 20 17.1427C20 17.6161 19.5203 17.9998 18.9286 17.9998H6.07143C5.4797 17.9998 5 17.6161 5 17.1427Z" fill="#666666"/>
</svg>
